<svg xmlns="http://www.w3.org/2000/svg" viewBox="0 0 800 600" role="img" aria-labelledby="title"><title>AI workflow preview</title><rect width="800" height="600" fill="#07111f"/><path stroke="#123149" stroke-width="2" d="M0 100h800M0 200h800M0 300h800M0 400h800M0 500h800M100 0v600M200 0v600M300 0v600M400 0v600M500 0v600M600 0v600M700 0v600"/><path fill="none" stroke="#22d3ee" stroke-width="8" d="M180 300h150l70-110h150l70 110h90"/><g fill="#0e2639" stroke="#22d3ee" stroke-width="4"><rect x="80" y="250" width="150" height="100" rx="16"/><rect x="325" y="140" width="150" height="100" rx="16"/><rect x="475" y="250" width="150" height="100" rx="16"/><rect x="625" y="250" width="120" height="100" rx="16"/></g><g fill="#a5f3fc" font-family="sans-serif" font-size="22" font-weight="700" text-anchor="middle"><text x="155" y="307">TRIGGER</text><text x="400" y="197">AI AGENT</text><text x="550" y="307">FILTER</text><text x="685" y="307">CRM</text></g><circle cx="400" cy="490" r="46" fill="#22d3ee" opacity=".16"/><circle cx="400" cy="490" r="20" fill="#22d3ee"/></svg>